<?xml version="1.0" standalone="yes"?>
<svg xmlns="http://www.w3.org/2000/svg" width="512" height="512">
<path style="fill:#010101; stroke:none;" d="M0 0L0 512L512 512L512 0L0 0z"/>
<path style="fill:#f1bd5f; stroke:none;" d="M389 8.52933C376.483 11.4219 376.459 24.0935 366.961 29.3225C360.568 32.8417 354.649 28.3099 348 28.0401C335.806 27.5454 324.228 36.4104 318.674 47C313.108 57.6111 322.464 69.1473 317.707 78.0355C314.423 84.1714 307.166 85.7229 302.468 90.4645C294.833 98.1685 294.54 111.821 296.329 122C298.73 135.667 313.99 135.898 318.103 147.001C320.121 152.45 316.266 158.441 316.04 164C315.567 175.67 322.959 184.758 332 191.442C343.93 200.262 354.07 189.508 365.086 193.805C372.237 196.594 373.279 204.536 378.44 209.532C386.285 217.128 401.745 217.812 412 215.175C423.712 212.164 424.549 199.244 433.989 194.293C439.782 191.255 445.952 195.714 452 195.96C464.194 196.455 475.772 187.59 481.326 177C486.916 166.344 477.808 155.243 482.319 146.004C485.35 139.796 492.892 138.218 497.532 133.535C505.167 125.831 505.46 112.179 503.671 102C501.298 88.4953 485.974 88.004 481.897 76.9992C479.879 71.5497 483.734 65.5594 483.96 60C484.424 48.5696 477.537 40.2312 469 33.3403C463.096 28.5747 455.395 27.0824 448 28.4676C443.573 29.2968 439.411 32.1063 434.911 30.1559C428.061 27.1864 426.517 19.4038 421.535 14.4676C413.831 6.83255 399.165 6.18027 389 8.52933z"/>
<path style="fill:#ffff01; stroke:none;" d="M377 15L378 16L377 15z"/>
<path style="fill:#e0aa41; stroke:none;" d="M422 15L423 16L422 15M374 19L375 20L374 19M425 19L426 20L425 19M370 27L371 28L370 27z"/>
<path style="fill:#ffff01; stroke:none;" d="M333 31L334 32L333 31z"/>
<path style="fill:#e0aa41; stroke:none;" d="M361 31L362 32L361 31z"/>
<path style="fill:#ffff01; stroke:none;" d="M328 35L329 36L328 35M471 35L472 36L471 35M327 36L328 37L327 36M472 36L473 37L472 36M326 37L327 38L326 37M473 37L474 38L473 37M325 38L326 39L325 38M474 38L475 39L474 38M324 39L325 40L324 39M475 39L476 40L475 39M323 40L324 41L323 40M476 40L477 41L476 40M319 45L320 46L319 45M480 45L481 46L480 45z"/>
<path style="fill:#e0aa41; stroke:none;" d="M390.667 56.3333L391.333 56.6667L390.667 56.3333z"/>
<path style="fill:#795f2f; stroke:none;" d="M392 56L392 57L395 57L392 56z"/>
<path style="fill:#010101; stroke:none;" d="M395 56.4252C372.417 59.4977 353.068 73.4901 346.439 96C335.973 131.539 365.428 172.313 404 167.715C426.999 164.973 446.823 150.878 453.561 128C464.191 91.9057 433.94 51.1272 395 56.4252z"/>
<path style="fill:#795f2f; stroke:none;" d="M405 56L405 57L408 57L405 56z"/>
<path style="fill:#e0aa41; stroke:none;" d="M408.667 56.3333L409.333 56.6667L408.667 56.3333M385 57L386 58L385 57z"/>
<path style="fill:#795f2f; stroke:none;" d="M386.667 57.3333L387.333 57.6667L386.667 57.3333M412.667 57.3333L413.333 57.6667L412.667 57.3333z"/>
<path style="fill:#e0aa41; stroke:none;" d="M382 58L383 59L382 58z"/>
<path style="fill:#795f2f; stroke:none;" d="M383 58L384 59L383 58M416 58L417 59L416 58z"/>
<path style="fill:#e0aa41; stroke:none;" d="M417 58L418 59L417 58M379 59L380 60L379 59z"/>
<path style="fill:#795f2f; stroke:none;" d="M380 59L381 60L380 59M419 59L420 60L419 59z"/>
<path style="fill:#e0aa41; stroke:none;" d="M420 59L421 60L420 59M377 60L378 61L377 60z"/>
<path style="fill:#795f2f; stroke:none;" d="M378 60L379 61L378 60M421 60L422 61L421 60z"/>
<path style="fill:#e0aa41; stroke:none;" d="M422 60L423 61L422 60M375 61L376 62L375 61z"/>
<path style="fill:#795f2f; stroke:none;" d="M376 61L377 62L376 61M424 61L425 62L424 61M373 62L374 63L373 62M426 62L427 63L426 62z"/>
<path style="fill:#e0aa41; stroke:none;" d="M371 63L372 64L371 63z"/>
<path style="fill:#795f2f; stroke:none;" d="M372 63L373 64L372 63z"/>
<path style="fill:#e0aa41; stroke:none;" d="M428 63L429 64L428 63z"/>
<path style="fill:#795f2f; stroke:none;" d="M370 64L371 65L370 64M429 64L430 65L429 64z"/>
<path style="fill:#e0aa41; stroke:none;" d="M368 65L369 66L368 65M431 65L432 66L431 65z"/>
<path style="fill:#795f2f; stroke:none;" d="M367 66L368 67L367 66M432 66L433 67L432 66z"/>
<path style="fill:#e0aa41; stroke:none;" d="M365 67L366 68L365 67M434 67L435 68L434 67M364 68L365 69L364 68M435 68L436 69L435 68z"/>
<path style="fill:#795f2f; stroke:none;" d="M363 69L364 70L363 69M436 69L437 70L436 69M362 70L363 71L362 70M437 70L438 71L437 70M361 71L362 72L361 71M438 71L439 72L438 71M360 72L361 73L360 72M439 72L440 73L439 72z"/>
<path style="fill:#e0aa41; stroke:none;" d="M319 73L320 74L319 73z"/>
<path style="fill:#795f2f; stroke:none;" d="M359 73L360 74L359 73M440 73L441 74L440 73M358 74L359 75L358 74M441 74L442 75L441 74M357 75L358 76L357 75M442 75L443 76L442 75z"/>
<path style="fill:#e0aa41; stroke:none;" d="M356 76L357 77L356 76M443 76L444 77L443 76M355 77L356 78L355 77M444 77L445 78L444 77z"/>
<path style="fill:#795f2f; stroke:none;" d="M354 79L355 80L354 79M445 79L446 80L445 79z"/>
<path style="fill:#e0aa41; stroke:none;" d="M353 80L354 81L353 80M446 80L447 81L446 80z"/>
<path style="fill:#795f2f; stroke:none;" d="M352 82L353 83L352 82M447 82L448 83L447 82z"/>
<path style="fill:#e0aa41; stroke:none;" d="M351 83L352 84L351 83M448 83L449 84L448 83z"/>
<path style="fill:#795f2f; stroke:none;" d="M351 84L352 85L351 84M448 84L449 85L448 84M350 85L351 86L350 85M449 85L450 86L449 85z"/>
<path style="fill:#e0aa41; stroke:none;" d="M307 86L308 87L307 86M492 86L493 87L492 86z"/>
<path style="fill:#795f2f; stroke:none;" d="M349 87L350 88L349 87z"/>
<path style="fill:#e0aa41; stroke:none;" d="M450 87L451 88L450 87z"/>
<path style="fill:#ffff01; stroke:none;" d="M303 89L304 90L303 89z"/>
<path style="fill:#e0aa41; stroke:none;" d="M348 89L349 90L348 89M451 89L452 90L451 89z"/>
<path style="fill:#795f2f; stroke:none;" d="M348 90L349 91L348 90M451 90L452 91L451 90z"/>
<path style="fill:#e0aa41; stroke:none;" d="M497 90L498 91L497 90M347 91L348 92L347 91M452 91L453 92L452 91z"/>
<path style="fill:#795f2f; stroke:none;" d="M347 92L348 93L347 92M452 92L453 93L452 92z"/>
<path style="fill:#e0aa41; stroke:none;" d="M346 94L347 95L346 94M453 94L454 95L453 94z"/>
<path style="fill:#795f2f; stroke:none;" d="M346 95L347 96L346 95M453 95L454 96L453 95z"/>
<path style="fill:#e0aa41; stroke:none;" d="M345 97L346 98L345 97z"/>
<path style="fill:#795f2f; stroke:none;" d="M345.333 98.6667L345.667 99.3333L345.333 98.6667z"/>
<path style="fill:#e0aa41; stroke:none;" d="M454 98L455 99L454 98z"/>
<path style="fill:#795f2f; stroke:none;" d="M454 99L455 100L454 99z"/>
<path style="fill:#e0aa41; stroke:none;" d="M344 102L345 103L344 102M455.333 102.667L455.667 103.333L455.333 102.667z"/>
<path style="fill:#795f2f; stroke:none;" d="M344 103L344 107L345 107L344 103M455 104L455 107L456 107L455 104M344 117L344 120L345 120L344 117M455 117L455 120L456 120L455 117z"/>
<path style="fill:#e0aa41; stroke:none;" d="M344.333 120.667L344.667 121.333L344.333 120.667M455.333 120.667L455.667 121.333L455.333 120.667z"/>
<path style="fill:#795f2f; stroke:none;" d="M345.333 124.667L345.667 125.333L345.333 124.667M454 124L455 125L454 124z"/>
<path style="fill:#e0aa41; stroke:none;" d="M454 125L455 126L454 125M345 126L346 127L345 126z"/>
<path style="fill:#795f2f; stroke:none;" d="M346 128L347 129L346 128M453 128L454 129L453 128z"/>
<path style="fill:#e0aa41; stroke:none;" d="M346 129L347 130L346 129M453 129L454 130L453 129z"/>
<path style="fill:#795f2f; stroke:none;" d="M347 131L348 132L347 131M452 131L453 132L452 131z"/>
<path style="fill:#e0aa41; stroke:none;" d="M347 132L348 133L347 132M452 132L453 133L452 132z"/>
<path style="fill:#795f2f; stroke:none;" d="M348 133L349 134L348 133M451 133L452 134L451 133z"/>
<path style="fill:#ffff01; stroke:none;" d="M303 134L304 135L303 134z"/>
<path style="fill:#e0aa41; stroke:none;" d="M348 134L349 135L348 134M451 134L452 135L451 134M349 136L350 137L349 136M450 136L451 137L450 136M307 137L308 138L307 137M492 137L493 138L492 137z"/>
<path style="fill:#795f2f; stroke:none;" d="M350 138L351 139L350 138M449 138L450 139L449 138M351 139L352 140L351 139M448 139L449 140L448 139z"/>
<path style="fill:#e0aa41; stroke:none;" d="M351 140L352 141L351 140M448 140L449 141L448 140z"/>
<path style="fill:#795f2f; stroke:none;" d="M352 141L353 142L352 141M447 141L448 142L447 141z"/>
<path style="fill:#e0aa41; stroke:none;" d="M353 143L354 144L353 143M446 143L447 144L446 143z"/>
<path style="fill:#795f2f; stroke:none;" d="M354 144L355 145L354 144M445 144L446 145L445 144z"/>
<path style="fill:#e0aa41; stroke:none;" d="M355 146L356 147L355 146M444 146L445 147L444 146M356 147L357 148L356 147M443 147L444 148L443 147z"/>
<path style="fill:#795f2f; stroke:none;" d="M357 148L358 149L357 148M442 148L443 149L442 148M358 149L359 150L358 149M441 149L442 150L441 149M359 150L360 151L359 150M440 150L441 151L440 150M360 151L361 152L360 151M439 151L440 152L439 151M361 152L362 153L361 152M438 152L439 153L438 152M362 153L363 154L362 153M437 153L438 154L437 153M363 154L364 155L363 154M436 154L437 155L436 154z"/>
<path style="fill:#e0aa41; stroke:none;" d="M364 155L365 156L364 155M435 155L436 156L435 155M365 156L366 157L365 156z"/>
<path style="fill:#795f2f; stroke:none;" d="M366 156L367 157L366 156z"/>
<path style="fill:#e0aa41; stroke:none;" d="M434 156L435 157L434 156z"/>
<path style="fill:#795f2f; stroke:none;" d="M367 157L368 158L367 157M432 157L433 158L432 157z"/>
<path style="fill:#e0aa41; stroke:none;" d="M368 158L369 159L368 158M431 158L432 159L431 158z"/>
<path style="fill:#795f2f; stroke:none;" d="M370 159L371 160L370 159M429 159L430 160L429 159z"/>
<path style="fill:#e0aa41; stroke:none;" d="M371 160L372 161L371 160z"/>
<path style="fill:#795f2f; stroke:none;" d="M372 160L373 161L372 160M427 160L428 161L427 160z"/>
<path style="fill:#e0aa41; stroke:none;" d="M428 160L429 161L428 160z"/>
<path style="fill:#795f2f; stroke:none;" d="M373 161L374 162L373 161M426 161L427 162L426 161z"/>
<path style="fill:#e0aa41; stroke:none;" d="M375 162L376 163L375 162z"/>
<path style="fill:#795f2f; stroke:none;" d="M376 162L377 163L376 162M424 162L425 163L424 162z"/>
<path style="fill:#e0aa41; stroke:none;" d="M377 163L378 164L377 163z"/>
<path style="fill:#795f2f; stroke:none;" d="M378 163L379 164L378 163M421 163L422 164L421 163z"/>
<path style="fill:#e0aa41; stroke:none;" d="M422 163L423 164L422 163M379 164L380 165L379 164z"/>
<path style="fill:#795f2f; stroke:none;" d="M380 164L381 165L380 164M419 164L420 165L419 164z"/>
<path style="fill:#e0aa41; stroke:none;" d="M420 164L421 165L420 164M382 165L383 166L382 165z"/>
<path style="fill:#795f2f; stroke:none;" d="M383 165L384 166L383 165M416 165L417 166L416 165z"/>
<path style="fill:#e0aa41; stroke:none;" d="M417 165L418 166L417 165M386 166L387 167L386 166z"/>
<path style="fill:#795f2f; stroke:none;" d="M387 166L388 167L387 166M412 166L413 167L412 166z"/>
<path style="fill:#e0aa41; stroke:none;" d="M413 166L414 167L413 166M390.667 167.333L391.333 167.667L390.667 167.333z"/>
<path style="fill:#795f2f; stroke:none;" d="M392 167L392 168L395 168L392 167M405 167L405 168L408 168L405 167z"/>
<path style="fill:#e0aa41; stroke:none;" d="M408.667 167.333L409.333 167.667L408.667 167.333z"/>
<path style="fill:#ffff01; stroke:none;" d="M319 178L320 179L319 178M323 183L324 184L323 183M476 183L477 184L476 183M324 184L325 185L324 184M475 184L476 185L475 184M325 185L326 186L325 185M474 185L475 186L474 185M326 186L327 187L326 186M473 186L474 187L473 186M327 187L328 188L327 187M472 187L473 188L472 187M328 188L329 189L328 188M471 188L472 189L471 188M333 192L334 193L333 192z"/>
<path style="fill:#e0aa41; stroke:none;" d="M355 194L356 195L355 194M370 196L371 197L370 196M425 204L426 205L425 204z"/>
<path style="fill:#ffff01; stroke:none;" d="M377 208L378 209L377 208M422 208L423 209L422 208z"/>
<path style="fill:#e0aa41; stroke:none;" d="M421 209L422 210L421 209z"/>
<path style="fill:#795f2f; stroke:none;" d="M392 215L393 216L392 215z"/>
<path style="fill:#e0aa41; stroke:none;" d="M393.667 215.333L394.333 215.667L393.667 215.333M405.667 215.333L406.333 215.667L405.667 215.333z"/>
<path style="fill:#795f2f; stroke:none;" d="M407 215L408 216L407 215z"/>
<path style="fill:#f1bd5f; stroke:none;" d="M360 344L360 360L440 360L440 344L360 344M360 376L360 392L376 392L376 408L392 408L392 392L408 392L408 408L424 408L424 392L440 392L440 376L360 376z"/>
</svg>
